<?xml version="1.0" encoding="UTF-8" standalone="no"?>
<svg
   id="Layer_2"
   data-name="Layer 2"
   viewBox="0 0 27.78 30.63"
   version="1.1"
   sodipodi:docname="usuario.svg"
   width="27.780001"
   height="30.629999"
   inkscape:version="1.1.2 (b8e25be833, 2022-02-05)"
   xmlns:inkscape="http://www.inkscape.org/namespaces/inkscape"
   xmlns:sodipodi="http://sodipodi.sourceforge.net/DTD/sodipodi-0.dtd"
   xmlns="http://www.w3.org/2000/svg"
   xmlns:svg="http://www.w3.org/2000/svg">
  <sodipodi:namedview
     id="namedview13"
     pagecolor="#ffffff"
     bordercolor="#666666"
     borderopacity="1.0"
     inkscape:pageshadow="2"
     inkscape:pageopacity="0.0"
     inkscape:pagecheckerboard="0"
     showgrid="false"
     inkscape:zoom="8.765916"
     inkscape:cx="2.9089943"
     inkscape:cy="18.48067"
     inkscape:window-width="1366"
     inkscape:window-height="697"
     inkscape:window-x="-8"
     inkscape:window-y="-8"
     inkscape:window-maximized="1"
     inkscape:current-layer="Layer_2" />
  <defs
     id="defs4">
    <style
       id="style2">.cls-1{fill:#636569;}</style>
    <style
       id="style830">.cls-1{fill:#6babb8;}</style>
  </defs>
  <g
     id="g1190"
     transform="matrix(0.80530656,0,0,0.80530656,2.7044191,0)"
     style="stroke-width:1.24176;fill:#636569;fill-opacity:1">
    <path
       class="cls-1"
       d="m 2337.34,247.26 c 0,-5.62 -1.75,-11.81 -7.64,-11.81 -7.09,0 -7.39,4.89 -7.84,7.63 -0.25,1.45 -1.58,10.52 3.53,9.84 a 4.28,4.28 0 0 0 0.7,-0.14 13.57,13.57 0 0 1 -2.74,-9.07 c 0,0 2.63,0.67 3,0.25 a 8.24,8.24 0 0 0 0.58,-2.21 3.2,3.2 0 0 1 0.17,2.13 c 2.27,0.89 7.92,-0.17 7.92,-0.17 0,0 1.44,5.17 -2.19,9.07 a 2.28,2.28 0 0 0 0.68,0.08 c 2.13,0.03 3.83,-0.92 3.83,-5.6 z"
       id="path6"
       transform="translate(-2315.54,-235.45)"
       style="stroke-width:1.24176;fill:#636569;fill-opacity:1" />
    <path
       class="cls-1"
       d="m 2336.25,249.32 a 2.21,2.21 0 0 0 -0.58,0.79 c -0.15,0.35 -0.33,0.7 -0.51,1.06 -2.45,3.37 -3.28,4.71 -5.53,4.75 -2.25,0.04 -3.35,-1.38 -5.81,-4.95 a 3.68,3.68 0 0 1 -0.39,-0.86 2.78,2.78 0 0 0 -0.49,-0.79 h -0.73 a 3.49,3.49 0 0 1 0.3,0.59 5.58,5.58 0 0 0 0.45,1 c 2.86,4.18 4.21,5.72 6.65,5.68 2.44,-0.04 3.38,-1.22 6.37,-5.14 0.22,-0.42 0.41,-0.83 0.59,-1.24 a 3,3 0 0 1 0.59,-0.89 z"
       transform="translate(-2315.54,-235.45)"
       id="path8"
       style="stroke-width:1.24176;fill:#636569;fill-opacity:1" />
  </g>
  <path
     class="cls-1"
     d="m 25.172011,23.925598 c -1.200856,-2.921483 -4.149224,-6.398586 -4.758613,-7.267861 -0.403272,-0.600428 -0.89616,-0.241964 -1.254624,-0.04481 -0.358465,0.197155 -3.584642,2.186631 -5.117077,2.17767 -1.532434,-0.009 -4.7406892,-1.917784 -5.0722685,-2.141824 -0.3315794,-0.22404 -0.8961605,-0.44808 -1.2635863,0 -0.7348516,0.761736 -1.6847818,2.285209 -4.35534,6.273123 -2.67055832,3.987915 -0.9588918,6.326893 3.2261777,7.052783 2.3927486,0.358465 8.6837951,1.317356 13.8367181,0.134425 5.152923,-1.182932 6.075968,-2.975253 4.758613,-6.183508 z"
     id="path836"
     style="fill:#636569;fill-opacity:1;stroke-width:0.999999" />
</svg>
